<svg enable-background="new 0 0 2798.573 1898.847" viewBox="0 0 2798.573 1898.847"
  xmlns="http://www.w3.org/2000/svg">
  <path d="m115.07 616.811-70.043 13.133 312.589 1237.373s327.874-236.334 1167.425-119.869h14.458s12.035-108.888 61.63-114.75c49.596-5.864 75.885 33.385 94.085 86.799 0 0 432.77-360.483 1058.332-265.025l-77.521-106.543z" fill="#efefef"/>
  <path d="m357.616 1870.364c-.352 0-.706-.061-1.043-.185-.948-.345-1.664-1.138-1.912-2.115l-312.59-1237.373c-.205-.816-.065-1.68.389-2.39.452-.708 1.179-1.198 2.006-1.352l70.043-13.133c.46-.088.942-.068 1.397.065l2560.955 731.116c.655.186 1.228.587 1.628 1.137l77.522 106.542c.723.995.779 2.326.14 3.378-.64 1.05-1.843 1.605-3.063 1.428-142.331-21.718-286.394-21.344-428.191 1.113-113.459 17.97-225.736 50.037-333.711 95.311-183.898 77.111-292.941 167.03-294.02 167.93-.772.641-1.814.862-2.775.592-.966-.273-1.737-1.001-2.061-1.953-21.632-63.485-49.644-89.622-90.843-84.753-46.65 5.514-58.841 110.993-58.958 112.059-.172 1.544-1.477 2.713-3.03 2.713h-14.458c-.14 0-.279-.01-.418-.03-432.898-60.048-726.684-24.396-896.91 16.086-184.384 43.851-267.497 102.648-268.315 103.238-.529.38-1.152.576-1.782.576zm-308.842-1238.023 310.736 1230.032c17.99-11.712 102.465-62.607 266.28-101.629 170.76-40.68 465.438-76.525 899.462-16.343h11.549c2.275-17.46 16.462-109.115 63.972-114.73 27.217-3.212 66.578 2.198 95.899 84.74 19.856-15.739 125.352-96.149 291.946-166.035 108.443-45.49 221.213-77.715 335.18-95.776 140.076-22.199 282.347-22.946 423.004-2.223l-72.623-99.808-2559.255-730.631z" fill="#cceeff"/>
  <path d="m115.07 616.811-55.854 1.022 311.473 1230.754s314.799-217.604 1154.351-101.139h14.458s12.035-108.888 61.63-114.75c49.596-5.864 75.885 33.385 94.085 86.799 0 0 408.13-374.518 1033.692-279.061l-52.881-92.507z" fill="#efefef"/>
  <path d="m2718.621 1290.774-539.825-928.908c-596.239 57.871-834.21 267.309-900.248 340.353l-42.097-117.896-1018.685-89.57 179.076 1182.844-19.456 154.926c355.718-226.174 1147.654-108.441 1147.654-108.441l1.435-2.26c3.258-22.793 8.52-45.862 19.853-66.065 11.691-20.841 30.925-37.613 54.8-42.362 2.757-.549 5.503-.885 8.234-1.053.086-.687.136-1.083.136-1.083 541.193-357.811 1109.123-320.485 1109.123-320.485z" fill="#e9e9ea"/>
  <path d="m377.387 1835.571c-.568 0-1.133-.158-1.631-.474-.997-.631-1.54-1.782-1.393-2.954l19.404-154.508-179.014-1182.425c-.14-.924.151-1.862.792-2.543.641-.682 1.583-1.022 2.487-.949l1018.685 89.569c1.186.105 2.204.89 2.604 2.011l40.396 113.13c34.547-37.286 110.536-106.031 248.806-172.82 174.821-84.444 393.507-139.882 649.979-164.776 1.199-.1 2.331.471 2.93 1.503l539.826 928.908c.565.974.547 2.181-.045 3.137-.594.958-1.671 1.515-2.79 1.436-1.422-.095-144.172-8.903-351.101 26.06-190.658 32.21-476.314 109.232-754.991 293.167-.305 1.294-1.428 2.258-2.78 2.342-2.688.165-5.321.502-7.827 1-21.326 4.242-40.548 19.137-52.736 40.865-9.47 16.881-15.482 36.93-19.494 65.004-.061.427-.213.838-.443 1.203l-1.436 2.26c-.646 1.016-1.836 1.56-3.021 1.381-1.979-.294-200.609-29.421-440.079-30.563-399.938-1.842-604.421 74.298-705.491 138.561-.5.315-1.069.475-1.637.475zm-156.028-1337.442 178.497 1179.012c.042.276.045.558.011.836l-18.655 148.551c80.965-50.06 190.281-86.845 325.063-109.371 110.113-18.404 237.444-27.338 378.348-26.717 227.139 1.089 417.611 27.31 438.903 30.345l.026-.044c4.125-28.515 10.339-49.037 20.12-66.473 13.059-23.284 33.784-39.27 56.862-43.862 2.102-.416 4.279-.73 6.499-.938.211-.292.476-.547.782-.748 280.008-185.129 567.127-262.543 758.684-294.886 184.447-31.142 318.154-27.621 346.663-26.384l-536.019-922.359c-254.906 24.916-472.246 80.095-645.972 164.009-142.102 68.638-217.856 139.208-250.364 175.164-.72.794-1.803 1.147-2.854.946-1.052-.21-1.915-.956-2.277-1.964l-41.44-116.056z" fill="#ced5cb"/>
  <path d="m2718.621 1290.774-539.825-928.908c-596.239 57.871-834.21 267.309-900.248 340.353l-42.097-117.896-1018.685-89.57 179.076 1182.844-19.456 154.926c355.718-226.174 1147.654-108.441 1147.654-108.441l1.435-2.26c3.258-22.793 8.52-45.862 19.853-66.065 11.691-20.841 30.925-37.613 54.8-42.362 2.757-.549 5.503-.885 8.234-1.053.086-.687.136-1.083.136-1.083 541.193-357.811 1109.123-320.485 1109.123-320.485z" fill="#fff"/>
  <path d="m377.387 1835.571c-.568 0-1.133-.158-1.631-.474-.997-.631-1.54-1.782-1.393-2.954l19.404-154.508-179.014-1182.425c-.14-.924.151-1.862.792-2.543.641-.682 1.583-1.022 2.487-.949l1018.685 89.569c1.186.105 2.204.89 2.604 2.011l40.396 113.13c34.547-37.286 110.536-106.031 248.806-172.82 174.821-84.444 393.507-139.882 649.979-164.776 1.199-.1 2.331.471 2.93 1.503l539.826 928.908c.565.974.547 2.181-.045 3.137-.594.958-1.671 1.515-2.79 1.436-1.422-.095-144.172-8.903-351.101 26.06-190.658 32.21-476.314 109.232-754.991 293.167-.305 1.294-1.428 2.258-2.78 2.342-2.688.165-5.321.502-7.827 1-21.326 4.242-40.548 19.137-52.736 40.865-9.47 16.881-15.482 36.93-19.494 65.004-.061.427-.213.838-.443 1.203l-1.436 2.26c-.646 1.016-1.836 1.56-3.021 1.381-1.979-.294-200.609-29.421-440.079-30.563-399.938-1.842-604.421 74.298-705.491 138.561-.5.315-1.069.475-1.637.475zm-156.028-1337.442 178.497 1179.012c.042.276.045.558.011.836l-18.655 148.551c80.965-50.06 190.281-86.845 325.063-109.371 110.113-18.404 237.444-27.338 378.348-26.717 227.139 1.089 417.611 27.31 438.903 30.345l.026-.044c4.125-28.515 10.339-49.037 20.12-66.473 13.059-23.284 33.784-39.27 56.862-43.862 2.102-.416 4.279-.73 6.499-.938.211-.292.476-.547.782-.748 280.008-185.129 567.127-262.543 758.684-294.886 184.447-31.142 318.154-27.621 346.663-26.384l-536.019-922.359c-254.906 24.916-472.246 80.095-645.972 164.009-142.102 68.638-217.856 139.208-250.364 175.164-.72.794-1.803 1.147-2.854.946-1.052-.21-1.915-.956-2.277-1.964l-41.44-116.056z" fill="#ced5cb"/>
  <g fill="#c5c4c4">
    <path d="m415.514 1726.694c14.894-1.802 29.223-6.625 43.519-10.956 14.917-4.521 30.05-8.36 45.049-12.604 30.541-8.643 60.975-17.653 91.504-26.339 29.885-8.502 59.686-17.221 89.446-26.15 14.582-4.374 29.177-8.713 43.815-12.896-55.944 7.013-111.541 16.463-165.51 33.166-50.373 15.592-98.056 38.503-147.823 55.779z" opacity=".5"/>
    <path d="m725.442 1654.036c-33.236 6.607-66.245 15.772-97.262 29.574 17.303 1.782 34.96-.092 52.02-2.973 18.1-3.056 35.946-7.433 53.748-11.867 8.446-2.103 16.887-4.23 25.362-6.215 8.946-2.094 17.96-3.867 26.88-6.073 18.495-4.577 36.636-10.332 54.731-16.249-1.712.09-3.425.16-5.136.259-37.009 2.148-73.968 6.314-110.343 13.544z" opacity=".5"/>
    <path d="m2178.796 361.865c-596.239 57.871-834.21 267.308-900.248 340.353l-42.097-117.895-1018.685-89.57 178.887 1181.592c8.998-3.006 17.878-6.369 26.893-9.321 14.309-4.684 28.877-8.777 43.38-12.815 33.901-9.439 68.186-17.294 102.585-24.669 68.352-14.654 136.986-28.199 206.188-38.211 68.31-9.883 136.951-15.827 205.958-17.36 67.753-1.505 135.615-.112 203.18 5.288 66.711 5.332 133.193 14.583 198.446 29.58 1.695.39 1.289 3.019-.405 2.993-38.983-.609-77.939-2.216-116.889-3.898-69.074-2.984-138.236-6.175-207.387-4.025-65.719 2.042-131.333 9.2-195.169 25.168 37.183.286 74.364-.448 111.531-1.517 72.56-2.088 145.159-5.191 217.756-3.139 72.313 2.045 144.649 9.472 214.829 27.56 1.63.42 1.317 3.219-.405 2.993-21.168-2.774-42.473-4.177-63.806-4.817-34.203-1.026-68.414-.187-102.62-.835-30.531-.579-61.991-1.215-91.731 6.677 32.159 7.527 65.052 9.295 98.004 10.708 31.658.092 32.16 4.345 1.162 3.025-11.779-.038-23.56.091-35.314.194-35.908.316-71.812-.558-107.723-.405-74.161.317-148.345 3.047-222.214 9.791-72.685 6.636-144.966 16.5-216.274 32.236-64.455 14.224-129.099 31.64-189.977 57.446-33.559 14.225-68.432 31.329-98.092 54.191l-1.174 9.338c355.718-226.174 1147.655-108.441 1147.655-108.441l1.436-2.261c3.257-22.793 8.52-45.862 19.853-66.065 11.69-20.841 30.925-37.614 54.8-42.362 2.757-.548 5.503-.885 8.234-1.053.087-.687.136-1.084.136-1.084 541.193-357.811 1109.123-320.485 1109.123-320.485z" opacity=".5"/>
    <path d="m2178.796 361.865c-596.239 57.871-834.21 267.308-900.248 340.353l-42.097-117.895-1018.685-89.57 178.887 1181.592c8.998-3.006 17.878-6.369 26.893-9.321 14.309-4.684 28.877-8.777 43.38-12.815 10.939-3.045 21.93-5.88 32.94-8.633 8.172-3.268 16.313-6.622 24.543-9.738 17.07-6.461 34.52-12.063 51.827-17.858 35.722-11.962 71.679-23.244 107.957-33.403 71.837-20.116 145.217-35.354 219.079-45.814 73.487-10.407 147.795-15.641 222.023-13.538 74.797 2.119 149.792 11.635 223.136 26.27 32.927 6.571 65.64 14.448 98.27 22.357 28.181 6.831 57.543 14.975 81.202 32.443 1.17.864.843 2.806-.769 2.84-53.904 1.147-107.123-10.39-160.177-18.999 52.085 15.877 109.896 14.41 156.901 44.471 1.175.751.829 2.984-.769 2.84-39.698-3.592-79.477-6.125-119.308-7.594 28.327 7.451 57.484 12.233 83.854 25.747 7.934 4.066 21.235 11.443 20.8 22.118-.279 6.824-7.257 11.466-12.638 14.319-9.94 5.27-21.163 8.197-32.06 10.709-14.769 3.405-29.777 5.745-44.797 7.724-1.508.199-3.027.365-4.538.557 68.77 6.835 110.637 13.056 110.637 13.056l1.436-2.261c3.257-22.793 8.52-45.862 19.853-66.065 11.69-20.841 30.925-37.614 54.8-42.362 2.757-.548 5.503-.885 8.234-1.053.087-.687.136-1.084.136-1.084 541.193-357.811 1098.748-338.337 1098.748-338.337z" opacity=".5"/>
    <path d="m1376.048 1668.166c22.275-.216 44.547-.656 66.819-1.123-18.706-3.617-37.475-6.915-56.309-9.8-18.903-2.896-37.874-5.364-56.89-7.403-29.648-.51-59.3.042-88.949-.519-30.531-.579-61.991-1.215-91.731 6.677 26.472 6.197 53.443 8.474 80.533 9.88 21.865.303 43.688 1.275 65.546 1.822 26.988.677 53.987.728 80.981.466z" opacity=".5"/>
  </g>
  <path d="m1609.498 1611.26s-.05.396-.136 1.083c17.502-1.078 34.304 5.382 48.371 16.115 17.52 13.369 31.014 31.562 42.23 50.346 2.445 4.095 4.778 8.258 7.033 12.463 541.664-367.803 1011.625-258.828 1011.625-258.828v-141.666c0 .001-567.93-37.325-1109.123 320.487z" fill="#fff"/>
  <path d="m1706.997 1694.315c-.243 0-.487-.029-.728-.088-.838-.207-1.549-.759-1.958-1.519-2.417-4.504-4.695-8.541-6.964-12.342-13.356-22.369-26.531-38.094-41.461-49.485-14.559-11.109-30.601-16.474-46.336-15.496-.903.058-1.79-.297-2.409-.956-.62-.662-.915-1.565-.802-2.466l.135-1.079c.109-.883.6-1.675 1.342-2.166 280.008-185.129 567.127-262.543 758.684-294.886 207.582-35.047 350.9-26.193 352.321-26.1 1.602.106 2.848 1.436 2.848 3.042v141.666c0 .929-.425 1.808-1.152 2.386-.729.579-1.677.797-2.583.583-1.172-.271-119.328-26.936-301.986-8.419-168.555 17.086-428.078 77.242-707.24 266.799-.51.346-1.106.526-1.711.526zm-89.051-84.966c14.327 1.032 28.564 6.713 41.635 16.687 15.568 11.879 29.231 28.149 42.997 51.206 1.808 3.025 3.617 6.193 5.493 9.616 122.942-83.143 252.291-148.434 384.51-194.079 106.594-36.799 215.283-60.984 323.044-71.882 165.458-16.737 278.403 3.441 299.948 7.787v-135.024c-21.111-1.041-157.377-6.032-348.253 26.215-189.386 31.996-472.464 108.177-749.374 289.474z" fill="#ced5cb"/>
  <path d="m2413.727 1346.268c-32.945 5.612-65.992 11.694-98.484 19.542-32.891 7.945-65.203 18.058-97.493 28.122-23.109 7.201-46.242 14.375-69.599 20.733 10.213-2.232 20.307-5.063 30.348-7.907 15.826-4.482 31.645-8.554 47.712-12.084 34.991-7.686 70.099-14.829 105.312-21.418 17.344-3.245 34.74-6.198 52.045-9.642 17.108-3.404 34.205-6.866 51.305-10.308 34.637-6.971 69.293-13.865 104.078-20.067 4.199-.749 8.407-1.453 12.611-2.179-12.164.425-24.318 1.144-36.444 2.112-33.984 2.716-67.79 7.372-101.391 13.096z" fill="#e5e3e2" opacity=".5"/>
  <path d="m2599.903 1355.957c-32.145 1.499-63.903 6.742-95.797 10.679-30.212 3.729-61.331 7.035-89.945 18.034 15.836 2.869 32.309 1.772 48.164-.259 16.885-2.164 33.563-5.677 50.249-8.993 7.67-1.525 15.348-3.024 23.069-4.267 8.213-1.323 16.484-2.282 24.725-3.401 22.064-2.995 44.568-6.246 66.257-12.069-8.91-.303-17.844-.139-26.722.276z" fill="#e5e3e2" opacity=".5"/>
  <path d="m2016.322 1449.619c-6.55 2.465-13.019 5.095-19.433 7.839 28.405-8.554 56.937-16.693 85.42-24.985-22.606 2.726-44.705 9.139-65.987 17.146z" fill="#e5e3e2" opacity=".5"/>
  <path d="m2550.159 1411.239c-67.04-2.855-134.19 1.938-200.657 10.626-65.929 8.618-131.273 21.418-195.549 38.444-63.485 16.815-125.902 37.669-186.736 62.414-61.05 24.832-120.462 53.642-177.764 86.203-1.734.986-3.117-1.518-1.538-2.632 49.88-35.158 99.436-71.394 153.612-99.575-64.067 25.857-124.619 59.62-184.43 94.117-1.569.904-2.938-1.125-1.847-2.393 18.408-21.392 41.634-38.051 65.66-52.571 20.91-12.637 42.794-23.417 64.295-34.979 22.626-12.167 45.075-24.667 68.001-36.269 1.232-.623 2.48-1.242 3.717-1.864-34.536 10.862-68.769 22.973-101.094 38.883-44.8 22.051-86.694 49.696-132.802 69.124-1.417.598-2.572-1.587-1.482-2.546 6.023-5.311 12.137-10.519 18.357-15.6 49.815-40.69 105.529-73.632 163.554-101.156 58.454-27.727 119.309-50.116 180.875-69.855 66.169-21.214 133.102-39.754 200.881-55.084 73.635-16.655 148.184-29.536 223.362-36.74 58.853-5.639 118.039-6.256 177.011-10.036-128.654-1.578-612.184 14.798-1076.088 321.509 0 0-.049.397-.136 1.084 17.502-1.078 34.304 5.382 48.371 16.115 17.519 13.368 31.014 31.562 42.23 50.346 2.445 4.095 4.778 8.258 7.033 12.463 427.747-290.451 810.775-283.576 952.966-267.839-36.233-6.631-72.958-10.619-109.802-12.189z" fill="#c5c4c4" opacity=".5"/>
  <path d="m217.766 494.753-124.049-10.906-18.228 144.799 301.897 1203.877 19.456-154.926z" fill="#e9e9ea"/>
  <path d="m377.386 1835.571c-1.389 0-2.613-.944-2.956-2.307l-301.899-1203.876c-.09-.367-.114-.748-.067-1.123l18.228-144.8c.204-1.626 1.649-2.809 3.29-2.654l124.05 10.907c1.402.123 2.536 1.189 2.747 2.579l179.076 1182.844c.042.278.045.56.011.836l-19.456 154.926c-.182 1.455-1.376 2.574-2.839 2.662-.062.005-.125.006-.185.006zm-298.803-1207.111 297.805 1187.554 17.379-138.378-178.656-1180.057-118.737-10.439z" fill="#ced5cb"/>
  <path d="m113.314 604.586c11.241 43.606 19.741 87.743 29.653 131.656 20.562 91.1 42.199 182.073 66.043 272.371 24.243 91.809 50.627 183.049 78.807 273.725 27.892 89.745 57.196 179.141 87.941 267.947 1.07 3.087 2.141 6.176 3.212 9.263l-161.204-1064.795-124.049-10.906-2.424 19.258c4.345 34.324 13.41 68.081 22.021 101.481z" fill="#c5c4c4" opacity=".5"/>
  <path d="m1601.129 1613.396-405.813-1067.298s-467.953-319.291-1101.6-62.251l303.125 1193.751c.001 0 536.871-210.116 1204.288-64.202z" fill="#fff"/>
  <path d="m396.843 1680.645c-.479 0-.957-.113-1.393-.336-.777-.401-1.345-1.115-1.561-1.962l-303.127-1193.751c-.375-1.477.397-3.001 1.808-3.574 144.853-58.759 293.041-92.045 440.45-98.932 117.925-5.508 235.64 5.772 349.834 33.532 194.483 47.276 313.005 127.158 314.179 127.958.515.351.909.852 1.131 1.435l405.812 1067.297c.399 1.046.19 2.224-.54 3.073-.727.846-1.863 1.229-2.958.988-344.304-75.271-652.982-53.826-851.301-22.582-214.831 33.846-349.886 86.121-351.226 86.645-.355.139-.732.209-1.108.209zm-299.519-1194.971 301.633 1187.867c21.77-8.105 152.114-54.71 349.273-85.771 197.776-31.164 505.034-52.598 848.052 21.454l-403.467-1061.132c-10.586-6.994-126.444-81.631-311.666-126.614-113.605-27.587-230.695-38.785-348.025-33.292-145.824 6.835-292.427 39.63-435.8 97.488z" fill="#ced5cb"/>
  <path d="m1601.129 1613.396-405.813-1067.298s-446.739-318.092-1080.386-61.053l296.575 1163.686s461.082-234.066 1189.624-35.335z" fill="#c5c4c4" opacity=".5"/>
  <path d="m1601.129 1613.396-405.813-1067.298s194.806-295.227 920.859-365.698l602.446 1079.378s-565.886-33.8-1117.492 353.618z" fill="#fff"/>
  <path d="m1601.129 1616.443c-.299 0-.601-.045-.893-.134-.9-.276-1.622-.951-1.955-1.83l-405.813-1067.297c-.348-.917-.235-1.944.305-2.762 16.979-25.731 78.362-91.734 189.15-157.365 127.506-75.536 358.342-173.231 733.957-209.688 1.205-.129 2.365.491 2.955 1.548l602.446 1079.378c.543.972.512 2.162-.08 3.105-.593.942-1.647 1.491-2.762 1.421-1.409-.081-143.659-7.961-351.354 31.519-191.639 36.43-479.783 121.788-764.206 321.55-.518.365-1.131.555-1.75.555zm-402.404-1069.954 403.861 1062.163c284.35-198.843 572.006-283.946 763.572-320.341 185.456-35.232 318.996-32.832 347.143-31.815l-598.815-1072.87c-206.415 20.187-499.713 72.741-728.975 208.387-108.186 64.01-168.828 128.198-186.786 154.476z" fill="#ced5cb"/>
  <path d="m1601.129 1613.396s276.694-339.918 1127.777-389.502l-615.239-1121.396s-593.154 33.794-918.351 443.6z" fill="#fff"/>
  <path d="m1601.129 1616.443c-.161 0-.323-.014-.487-.04-1.074-.173-1.974-.906-2.361-1.924l-405.813-1067.297c-.382-1.005-.207-2.136.462-2.978 74.404-93.763 169.116-175.492 281.504-242.918 89.862-53.913 191.163-98.853 301.089-133.572 187.138-59.104 336.484-68.174 337.971-68.259 1.196-.054 2.28.549 2.845 1.577l615.238 1121.395c.501.917.5 2.027-.005 2.942-.506.914-1.447 1.506-2.49 1.567-242.205 14.11-591.724 62.48-881.379 212.777-138.564 71.901-220.333 146.306-244.211 175.604-.585.719-1.456 1.126-2.363 1.126zm-402.347-1069.806 403.39 1060.926c15.992-17.785 89.283-93.567 242.284-173.03 102.127-53.04 219.345-97.386 348.398-131.807 159.917-42.653 338.559-70.098 531.061-81.591l-611.986-1115.467c-17.973 1.255-159.737 12.62-334.729 67.909-109.446 34.579-210.286 79.323-299.716 132.986-111.175 66.711-204.938 147.481-278.702 240.074z" fill="#ced5cb"/>
  <path d="m1601.129 1613.396s265.918-359.561 1117-409.144l-604.462-1101.754s-593.154 33.794-918.351 443.6z" fill="#c5c4c4" opacity=".5"/>
  <path d="m1601.129 1613.396s239.826-398.824 1127.777-417.024l-627.076-1164.84s-717.957 58.432-906.514 514.566z" fill="#fff"/>
  <path d="m1601.13 1616.443c-.091 0-.182-.005-.274-.014-1.161-.102-2.162-.86-2.575-1.951l-405.813-1067.296c-.276-.727-.265-1.53.032-2.247 43.224-104.561 117.979-196.786 222.191-274.116 83.254-61.778 185.393-114.241 303.578-155.927 201.105-70.936 381.516-86.249 383.315-86.395 1.202-.115 2.355.525 2.93 1.592l627.075 1164.839c.502.935.484 2.063-.051 2.98-.536.917-1.509 1.49-2.57 1.512-202.128 4.143-387.072 28.578-549.695 72.626-130.057 35.228-246.206 83.007-345.224 142.01-168.54 100.433-229.71 199.918-230.309 200.911-.555.921-1.548 1.476-2.61 1.476zm-402.534-1070.296 403.263 1060.595c14.854-21.701 80.714-109.42 228.615-197.65 99.494-59.353 216.178-107.406 346.813-142.823 161.865-43.884 345.726-68.385 546.573-72.838l-623.76-1158.684c-20.177 1.871-190.87 19.23-379.934 85.938-117.583 41.487-219.159 93.662-301.903 155.072-102.908 76.378-176.81 167.346-219.667 270.39z" fill="#ced5cb"/>
  <path d="m1783.585 112.339c58.786-2.341 119.126 7.966 170.455 37.816 27.175 15.804 49.573 36.678 70.035 60.358 22.463 25.997 43.033 53.603 62.046 82.209 39.271 59.086 71.942 122.307 101.74 186.606 30.049 64.844 212.95 463.848 228.852 499.667 14.897 33.557 28.532 68.34 36.289 104.325 4.556 21.138 5.297 43.534-1.741 64.226-6.049 17.783-17.495 33.018-31.731 45.112-21.368 18.154-47.334 30.134-74.095 39.436 111.864-19.734 239.092-32.764 383.47-35.724l-627.075-1164.838s-186.011 15.144-393.538 90.162c24.821-5.11 50.004-8.349 75.293-9.355z" fill="#cecdcd" opacity=".15"/>
  <path d="m1971.087 61.208c53.342 5.125 95.939 42.516 129.386 81.657 38.705 45.293 71.594 95.908 103.306 146.208 35.951 57.024 69.365 115.618 100.972 175.15 63.269 119.168 119.308 241.968 175.354 364.641 25.135 55.015 50.937 109.746 75.319 165.101 16.107 36.567 32.532 74.39 38.582 114.172 5.059 33.263.605 66.777-18.39 95.13-.087.13-.185.251-.272.381 48.896-3.693 100.045-6.18 153.562-7.277l-627.076-1164.839s-72.938 5.94-178.419 28.798c15.865-.799 31.761-.651 47.676.878z" fill="#cecdcd" opacity=".37"/>
  <path d="m2548.078 1164.264c-83.039-9.534-167.231-7.877-250.204 1.497-81.266 9.18-161.801 25.834-240.045 49.635-36.458 11.091-72.679 23.464-107.541 38.91-33.66 14.914-66.272 32.027-99.5 47.851-52.34 24.926-115.821 53.563-174.089 31.733-31.113-11.657-55.212-35.934-73.846-62.771-13.719-19.759-24.752-41.321-35.852-62.616-11.581-22.221-22.674-44.695-33.346-67.367-43.535-92.478-80.131-188.071-113.889-284.495-17.12-48.9-33.697-97.987-50.723-146.92-16.575-47.638-32.058-96.12-38.733-146.283-6.699-50.339-2.627-99.537 12.827-147.895 13.153-41.155 34.48-79.491 60.167-114.099 12.069-16.26 25.216-31.9 39.257-46.78-104.936 72.132-195.796 166.977-247.245 291.432l405.812 1067.298s234.814-390.427 1099.884-416.304c-49.56-16.429-101.18-26.883-152.934-32.826z" fill="#cecdcd" opacity=".37"/>
  <path d="m1991.903 1329.093c-43.649 12.529-86.534 26.581-127.803 45.698-37.845 17.53-75.597 37.846-109.116 62.789-28.047 20.872-57.019 47.57-93.507 50.767-23.325 2.045-43.425-9.901-59.152-26.203-18.167-18.831-31.326-42.268-42.578-65.698-12.517-26.065-22.733-53.19-32.218-80.482-7.976-22.953-15.167-46.183-23.392-69.048-14.129-39.284-84.101-206.299-102.44-251.44-14.492-35.67-27.665-71.856-42.263-107.476-25.882-63.151-54.575-125.14-77.513-189.473-22.651-63.529-41.428-130.849-40.156-198.867.323-17.252 2.118-34.512 5.572-51.419-20.065 30.393-37.592 62.96-52.019 97.857l405.812 1067.298s101.192-168.249 415.44-291.17c-8.231 2.257-16.464 4.513-24.667 6.867z" fill="#cecdcd" opacity=".37"/>
  <path d="m1601.129 1613.396s-524.6-234.246-1185.889 23.21l-300.31-1198.593s607.655-266.146 1080.386 108.085z" fill="#fff"/>
  <path d="m415.241 1639.652c-.482 0-.961-.115-1.399-.341-.778-.401-1.345-1.117-1.558-1.966l-300.311-1198.592c-.36-1.443.372-2.935 1.734-3.532 1.524-.667 154.782-66.96 363.857-86.536 122.83-11.504 240.645-4.884 350.175 19.674 136.971 30.707 261.279 89.704 369.469 175.351.432.342.762.793.957 1.307l405.812 1067.297c.437 1.151.14 2.452-.755 3.297-.894.847-2.209 1.073-3.336.568-45.282-20.21-175.524-63.927-344.34-84.729-123.89-15.263-250.358-16.622-375.891-4.035-156.903 15.735-312.783 53.428-463.309 112.031-.355.138-.732.206-1.105.206zm-296.722-1199.851 298.837 1192.713c150.101-58.113 305.463-95.513 461.856-111.183 126.013-12.625 252.963-11.248 377.329 4.098 161.857 19.97 288.473 60.954 339.172 82.3l-402.945-1059.762c-107.284-84.773-230.498-143.187-366.249-173.638-108.878-24.422-226.032-31.018-348.192-19.594-194.018 18.137-339.697 76.666-359.808 85.066z" fill="#ced5cb"/>
  <path d="m544.326 350.268c41.113-2.479 81.487.198 122.259 5.657 73.222 9.806 149.078 27.932 210.384 71.069 51.686 36.369 89.282 87.977 119.45 142.795 15.613 28.37 29.485 57.652 43.141 87.001 15.691 33.726 31.711 67.304 46.307 101.524 33.589 78.744 61.688 159.653 89.515 240.567 14.12 41.059 28.188 82.138 42.887 122.994 10.156 28.228 22.228 55.73 32.848 83.785 11.626 30.715 22.194 62.116 28.082 94.495 5.131 28.211 7.033 58.324-1.708 86.039-9.421 29.869-32.083 52.585-58.258 68.697-29.84 18.369-63.674 31.61-96.865 42.479-22.041 7.218-44.38 13.273-66.912 18.512 329.578 1.078 545.673 97.512 545.673 97.512l-405.813-1067.297c-259.04-205.065-558.562-217.834-776.445-187.488 41.951-.354 83.621-5.819 125.455-8.341z" fill="#cecdcd" opacity=".37"/>
  <path d="m1090.867 518.326c32.153 47.656 54.317 101.207 74.257 154.87 10.08 27.13 19.6 54.464 29.588 81.629 11.013 29.955 22.93 59.588 34.515 89.325 48.508 124.523 96.81 249.357 135.282 377.425 9.444 31.439 18.278 63.064 26.31 94.895 7.159 28.365 15.105 57.225 17.699 86.456 2.4 27.033-1.807 52.844-16.996 75.694-9.417 14.167-23.224 24.597-38.617 31.555-36.31 16.409-78.776 16.898-117.871 15.57-1.521-.051-3.04-.147-4.559-.211 228.929 24.628 370.653 87.862 370.653 87.862l-405.812-1067.299c-63.216-50.043-128.844-88.608-195.106-117.915 35.807 23.747 66.248 53.966 90.657 90.144z" fill="#cecdcd" opacity=".37"/>
  <path d="m490.307 1554.762c-35.248-25.293-59.633-62.213-77.072-101.399-11.779-26.467-21.327-54.142-30.684-81.538-10.046-29.417-19.243-59.12-27.781-89.008-17.111-59.901-31.602-120.519-44.885-181.374-26.483-121.334-48.009-243.706-75.552-364.813-17.858-78.516-41.501-161.282-27.066-242.367 6.131-34.436 20.703-67.07 45.411-92.195 4.899-4.982 10.112-9.557 15.54-13.831-94.792 24.162-153.287 49.776-153.287 49.776l300.31 1198.593c49.841-19.404 98.899-35.997 147.022-50.127-25.675-6.112-50.269-16.156-71.956-31.717z" fill="#cecdcd" opacity=".37"/>
</svg>
