<svg xmlns="http://www.w3.org/2000/svg" xml:space="preserve" width="284" height="409"><path fill="#141414" d="M203.32 394.051c-2.129 2.647-5.109 3.981-8.917 3.981-3.654 0-6.553-1.363-8.683-4.089-2.134-2.733-3.2-5.977-3.2-9.723 0-3.565 1.113-6.625 3.321-9.197 2.199-2.573 5.046-3.858 8.499-3.858 3.697 0 6.662 1.243 8.856 3.747 2.213 2.499 3.328 5.634 3.328 9.381 0 3.861-1.065 7.111-3.204 9.758m2.904-22.414h-.152c-3.196-4.115-7.325-6.183-12.437-6.183-5.241 0-9.465 1.865-12.656 5.599-3.202 3.733-4.788 8.272-4.788 13.619 0 5.2 1.607 9.677 4.823 13.444 3.217 3.753 7.407 5.633 12.552 5.633 5.189 0 9.365-2.006 12.506-6.015h.152v5.007h6.169V366.45l-6.169.006Zm-31.698-199.704V58.506l11.953-8.367v121.794c0 19.235-4.164 28.962-15.923 37.192l-16.331 11.445-10.28-7.197 18.559-12.993c12.022-8.423 12.022-20.956 12.022-28.447m21.937-128.785 11.955-8.369v137.154c0 31.511-8.105 42.945-24.063 54.119l-49.106 34.384-10.277-7.199 51.322-35.93c16.736-11.725 20.169-26.614 20.169-45.374zM218.4 27.786l11.955-8.37v152.517c0 41.245-10.383 55.774-32.206 71.051l-62.894 44.03-80.272-56.215 10.261-7.193 70.005 49.021 54.836-38.395c20.908-14.637 28.315-30.941 28.315-62.299ZM84.222 210.322l42.316 29.631-10.27 7.191-42.313-29.626zm18.982-13.285 42.311 29.633-10.274 7.189-42.306-29.634zm61.34-25.104c0 8.4-.573 15.226-7.77 20.265l-21.541 15.082-32.029-22.437-65.633 45.956 97.684 68.409 68.631-48.045c23.634-16.556 36.452-34.085 36.452-79.23V.231l-75.794 53.074Zm63.749 230.808h6.176v-63.689h-6.176Zm46.368-8.69c-2.145 2.647-5.117 3.981-8.926 3.981-3.646 0-6.551-1.363-8.688-4.089-2.124-2.733-3.204-5.977-3.204-9.723 0-3.565 1.116-6.625 3.322-9.197 2.213-2.573 5.048-3.858 8.5-3.858 3.704 0 6.656 1.243 8.864 3.747 2.22 2.499 3.32 5.634 3.32 9.381 0 3.861-1.05 7.111-3.188 9.758m2.889-27.595v5.181h-.153c-3.189-4.115-7.324-6.183-12.435-6.183-5.249 0-9.461 1.865-12.656 5.599-3.189 3.733-4.781 8.272-4.781 13.619 0 5.2 1.606 9.677 4.816 13.444 3.223 3.753 7.401 5.633 12.55 5.633 5.197 0 9.379-2.006 12.513-6.015h.153v5.007h6.175V366.45zm-183.691.188c-1.107.799-2.298 2.04-3.578 3.742h-.16v-3.936h-6.168v36.286h6.175v-18.139c0-8.959 2.359-13.438 7.102-13.438.876 0 2.101.543 3.702 1.622l2.932-5.63c-2.014-1.144-3.858-1.706-5.565-1.706-1.842 0-3.326.398-4.44 1.199m-31.677 20.034c0 1.399-.042 2.583-.119 3.554-.07.972-.287 1.988-.611 3.046-.335 1.051-.781 1.897-1.352 2.548-.57.638-1.363 1.17-2.396 1.579-1.036.41-2.261.622-3.711.622-1.439 0-2.68-.212-3.707-.622-1.027-.409-1.825-.933-2.392-1.579-.569-.649-1.013-1.491-1.348-2.548-.342-1.052-.543-2.074-.622-3.046-.076-.971-.117-2.147-.117-3.554v-20.222h-6.161v20.926c0 10.906 4.782 16.363 14.355 16.363 9.568 0 14.364-5.461 14.364-16.363V366.45l-6.183.006zm89.154-21.241c-2.271 0-4.386.53-6.377 1.545-1.977 1.031-3.48 2.535-4.51 4.475-.983-1.85-2.354-3.305-4.128-4.385-1.776-1.085-3.739-1.627-5.904-1.627-3.711 0-6.62 1.649-8.724 4.941h-.151v-3.939h-6.164v36.289h6.175V383.97c0-1.638.091-3.107.28-4.392.173-1.283.508-2.626.989-4.019.486-1.387 1.313-2.464 2.472-3.237 1.156-.786 2.582-1.163 4.289-1.163 4.315 0 6.472 3.657 6.472 10.966v20.609h6.175v-19.222c0-1.651.091-3.09.273-4.324.179-1.234.507-2.528 1.002-3.858.487-1.336 1.279-2.367 2.393-3.099 1.101-.716 2.507-1.077 4.212-1.077 1.489 0 2.708.297 3.664.883.944.592 1.634 1.491 2.039 2.672.409 1.192.675 2.271.778 3.245.091.975.162 2.208.162 3.701v21.075h6.159v-22.08c0-10.137-3.862-15.213-11.576-15.213M17.109 390.632c0 1.065-.013 1.921-.04 2.545-.022.623-.091 1.478-.197 2.576-.095 1.111-.292 2.003-.576 2.674-.292.67-.642 1.375-1.087 2.126-.433.752-1.031 1.295-1.775 1.665-.745.35-1.636.533-2.659.533-2.215 0-4.512-1.111-6.865-3.316l-3.642 5.016c3.397 2.871 6.846 4.318 10.346 4.318 4.261 0 7.609-1.599 10.031-4.791.928-1.176 1.61-2.614 2.04-4.289.44-1.662.704-3.083.774-4.245.077-1.163.118-2.766.118-4.818v-46.099l-6.468.003zm45.979-38.749H45.953v4.906h17.135z"/></svg>